# xmcd
#
# Track frame offsets:
#	150
#	9731
#	23586
#	34407
#	45106
#	57714
#	70653
#	84347
#	95137
#	107853
#	119339
#
# Disc length: 1752 seconds
#
# Revision: 0
# Processed by: cddbd v1.5.1PL0 Copyright (c) Steve Scherf et al.
# Submitted via: dBpowerAMP V4.0
#
DISCID=8c06d60b
DTITLE=Merle Haggard - The Legend Of Bonnie And Clyde
DYEAR=1968
DGENRE=Country
TTITLE0=The Legend Of Bonnie And Clyde
TTITLE1=Is This The Beginning Of The End
TTITLE2=Love Has A Mind Of Its Own
TTITLE3=The Train Never Stops
TTITLE4=Fools Castle
TTITLE5=Will You Visit Me On Sundays
TTITLE6=My Ramona
TTITLE7=Today I Started Loving You Again
TTITLE8=Money Tree
TTITLE9=You Still Have A Place In My Heart
TTITLE10=Because You Can't Be Mine
EXTD=The Legend Of Bonnie And Clyde
EXTT0=
EXTT1=
EXTT2=
EXTT3=
EXTT4=
EXTT5=
EXTT6=
EXTT7=
EXTT8=
EXTT9=
EXTT10=
PLAYORDER=
